<?xml version="1.0" standalone="no"?>
<!DOCTYPE svg PUBLIC "-//W3C//DTD SVG 20010904//EN"
 "http://www.w3.org/TR/2001/REC-SVG-20010904/DTD/svg10.dtd">
<svg version="1.0" xmlns="http://www.w3.org/2000/svg"
 width="1076.000000pt" height="1076.000000pt" viewBox="0 0 1076.000000 1076.000000"
 preserveAspectRatio="xMidYMid meet">
<metadata>
Created by potrace 1.11, written by Peter Selinger 2001-2013
</metadata>
<g transform="translate(0.000000,1076.000000) scale(0.100000,-0.100000)"
fill="#000000" stroke="none">
<path d="M5297 10434 c-1 -1 -76 -4 -167 -8 -91 -3 -176 -8 -190 -10 -14 -2
-54 -7 -90 -11 -151 -15 -210 -23 -340 -46 -375 -65 -847 -206 -1140 -341 -25
-11 -70 -31 -100 -45 -89 -39 -266 -130 -405 -210 -537 -306 -1044 -740 -1427
-1220 -18 -23 -46 -58 -62 -78 -32 -40 -167 -228 -207 -290 -67 -101 -119
-185 -149 -240 -18 -33 -38 -67 -45 -75 -6 -8 -36 -62 -65 -120 -29 -58 -56
-109 -60 -115 -4 -5 -37 -76 -73 -157 -104 -229 -187 -456 -252 -683 -9 -33
-23 -80 -30 -105 -7 -25 -18 -65 -24 -90 -28 -121 -41 -178 -46 -205 -2 -16
-6 -39 -9 -50 -2 -11 -6 -36 -10 -55 -3 -19 -8 -46 -11 -60 -3 -14 -7 -43 -10
-65 -3 -22 -7 -51 -10 -65 -2 -14 -7 -50 -10 -80 -4 -30 -8 -66 -10 -80 -2
-14 -7 -68 -11 -120 -4 -52 -8 -111 -10 -130 -6 -58 -5 -562 0 -606 3 -22 8
-76 11 -120 7 -111 24 -247 60 -464 17 -105 17 -108 44 -225 131 -573 359
-1118 674 -1610 59 -91 182 -270 214 -310 5 -5 33 -41 63 -80 115 -148 339
-400 347 -391 5 5 44 256 78 501 1 11 5 36 9 55 3 19 8 46 10 60 78 453 244
975 430 1350 48 96 173 318 185 330 4 3 24 32 46 65 106 159 275 343 375 408
88 58 160 79 270 80 74 0 108 -5 155 -22 87 -33 115 -35 152 -12 47 30 67 74
69 159 3 100 26 162 84 225 46 50 176 136 239 158 l30 10 3 147 3 147 33 42
c40 49 38 72 -11 162 -16 31 -67 124 -111 206 -45 83 -93 171 -106 197 -23 44
-30 49 -113 84 -223 92 -312 222 -324 469 -5 108 -6 111 -41 155 -20 25 -39
47 -42 50 -3 3 -44 52 -91 110 -105 128 -179 235 -179 259 0 26 49 25 122 -3
65 -24 407 -191 421 -205 4 -4 43 0 86 9 163 36 310 22 405 -37 44 -27 176
-158 176 -174 0 -29 47 -70 94 -83 232 -65 497 -136 524 -141 31 -5 39 -1 81
43 48 49 49 50 182 81 l135 32 12 62 c15 81 58 191 94 245 39 57 118 108 198
126 75 18 108 40 132 87 24 48 22 80 -8 120 -98 131 -126 298 -75 452 87 261
464 672 893 973 245 172 588 366 868 492 25 11 65 29 90 40 49 22 394 158 475
187 28 10 55 21 60 25 6 4 39 17 75 30 36 13 73 29 83 36 18 12 18 13 -5 27
-104 66 -522 287 -542 287 -2 0 -38 15 -79 34 -144 67 -532 207 -615 222 -13
3 -42 11 -65 19 -43 14 -328 81 -382 89 -16 2 -70 11 -119 20 -49 9 -114 19
-144 22 -30 3 -65 8 -76 10 -21 4 -71 10 -161 19 -97 9 -531 25 -538 19z"/>
<path d="M8175 9541 c-20 -19 -331 -228 -461 -309 l-69 -42 45 6 c25 3 95 7
157 9 87 2 115 0 124 -11 9 -11 6 -16 -12 -23 -340 -133 -822 -355 -934 -429
-49 -33 -135 -109 -100 -90 6 4 34 9 64 13 30 4 63 9 75 11 22 4 69 11 139 19
23 3 53 8 67 10 14 2 50 7 80 10 30 3 71 8 90 10 102 12 215 14 251 5 72 -20
68 -22 -231 -129 -63 -23 -124 -46 -135 -50 -11 -5 -92 -37 -180 -71 -88 -35
-268 -110 -400 -167 l-240 -104 75 6 c176 13 545 13 590 0 25 -7 43 -14 40
-15 -3 -1 -12 -3 -20 -5 -150 -31 -544 -157 -700 -222 -126 -53 -300 -172
-300 -205 0 -5 3 -7 8 -5 4 3 43 8 87 11 44 4 105 9 135 11 30 3 81 7 113 10
31 2 92 6 135 9 186 14 258 16 271 7 28 -18 12 -26 -124 -56 -58 -12 -339 -88
-395 -107 -92 -29 -218 -91 -263 -129 -36 -29 -37 -33 -21 -42 19 -11 146 -12
194 -2 53 10 76 14 112 20 21 2 57 9 80 14 24 6 65 13 92 16 l49 7 -19 -33
c-11 -19 -40 -48 -66 -65 -45 -31 -219 -111 -313 -144 l-49 -18 34 -7 c19 -3
78 -7 130 -8 149 -4 156 -21 40 -97 -43 -28 -106 -63 -139 -76 -64 -26 -242
-83 -276 -88 -61 -9 22 -45 168 -72 56 -11 96 -23 94 -29 -5 -14 -87 -43 -144
-50 -26 -4 -59 -8 -71 -10 -13 -2 -51 -5 -83 -6 -33 -1 -62 -7 -66 -12 -8 -13
112 -121 179 -159 32 -18 58 -36 58 -39 0 -3 -35 -7 -77 -8 -71 -1 -209 26
-277 54 -30 13 97 -166 167 -236 33 -32 58 -62 55 -65 -11 -10 -85 -6 -124 6
-22 7 -81 33 -132 57 -51 25 -96 43 -99 40 -13 -14 65 -132 127 -191 56 -53
66 -67 55 -76 -38 -31 -160 -3 -303 69 -34 17 -62 27 -62 21 0 -5 5 -10 10
-10 6 0 10 -6 10 -13 0 -7 26 -39 58 -71 52 -54 98 -82 200 -122 21 -8 18 -11
-36 -41 -32 -18 -76 -35 -98 -38 -21 -3 -50 -8 -64 -10 -14 -3 -45 -7 -70 -10
-24 -3 -46 -7 -47 -9 -5 -5 385 -589 462 -691 61 -80 128 -160 235 -279 19
-21 94 -79 165 -128 162 -112 641 -430 674 -448 14 -7 30 -17 35 -22 52 -43
607 -369 891 -523 39 -20 97 -52 130 -71 100 -55 318 -168 542 -282 117 -59
213 -111 213 -116 0 -35 -322 61 -535 159 -17 7 -44 19 -60 25 -163 62 -747
342 -1025 492 -208 112 -578 316 -630 346 -19 12 -47 28 -63 36 l-27 15 18
-24 c10 -13 55 -63 99 -112 45 -48 91 -99 102 -112 20 -23 109 -123 206 -231
28 -31 61 -69 75 -86 14 -16 68 -78 120 -139 189 -218 234 -272 379 -460 155
-201 132 -172 206 -270 65 -87 67 -90 176 -250 123 -181 182 -291 177 -332 -3
-21 -17 -7 -103 98 -55 67 -104 127 -110 133 -5 6 -44 52 -85 101 -41 50 -80
95 -86 100 -6 6 -37 42 -70 80 -32 39 -61 72 -64 75 -3 3 -23 25 -44 50 -33
38 -121 136 -211 236 -355 392 -647 683 -1195 1191 -104 97 -129 116 -210 162
-196 112 -439 216 -850 366 -85 31 -165 60 -178 65 -13 6 -27 10 -32 10 -8 0
-7 -54 6 -170 4 -45 -22 -170 -37 -170 -4 0 -19 20 -33 44 -34 59 -100 115
-180 154 -36 18 -68 32 -72 32 -3 0 6 -15 21 -32 60 -75 106 -139 126 -178 21
-40 34 -114 23 -132 -3 -4 -31 9 -62 31 -31 21 -71 46 -89 55 -37 19 -153 47
-153 38 0 -6 11 -20 70 -89 72 -84 121 -183 112 -225 -3 -15 -10 -13 -49 17
-25 19 -51 35 -57 35 -7 0 -17 5 -24 12 -12 12 -203 90 -209 84 -2 -2 15 -34
37 -72 42 -71 74 -160 85 -234 l6 -43 -43 43 c-60 60 -134 118 -181 141 l-39
20 6 -28 c32 -157 40 -310 17 -350 -8 -15 -15 -7 -41 52 -55 122 -69 149 -95
180 l-24 30 -1 -30 c-8 -236 -27 -355 -70 -453 -11 -25 -20 -51 -20 -58 0 -7
-9 -18 -19 -23 -27 -15 -35 -1 -60 99 -12 47 -27 100 -34 118 -11 32 -23 42
-24 20 0 -24 -14 -132 -18 -138 -2 -3 -6 -24 -10 -48 -10 -68 -45 -194 -62
-222 -15 -26 -51 -55 -59 -48 -2 2 -6 65 -9 139 -5 136 -11 214 -20 259 -3 14
-8 41 -11 60 -7 37 -20 60 -35 60 -18 0 -52 -86 -70 -179 -25 -124 -34 -268
-38 -618 -1 -56 -4 -73 -15 -73 -16 0 -30 53 -52 190 -3 19 -7 46 -10 60 -2
14 -11 70 -19 125 -8 55 -17 114 -20 130 -2 17 -7 48 -10 70 -14 97 -27 175
-30 175 -2 0 -14 -19 -27 -42 -45 -81 -91 -214 -103 -303 -4 -22 -8 -51 -10
-65 -2 -14 -7 -52 -10 -85 -4 -33 -8 -76 -10 -95 -2 -19 -7 -78 -11 -130 -3
-52 -8 -113 -9 -135 -2 -22 -4 -87 -4 -145 -1 -72 -4 -100 -11 -90 -27 41 -72
190 -95 310 -1 8 -6 33 -10 55 -4 22 -9 49 -11 60 -1 11 -5 29 -7 40 -3 11
-10 56 -17 100 -14 85 -29 130 -30 85 0 -14 -6 -56 -14 -95 -8 -38 -17 -86
-20 -105 -3 -19 -8 -47 -11 -62 -3 -16 -7 -40 -10 -55 -3 -16 -14 -82 -25
-148 -11 -66 -21 -129 -24 -140 -2 -11 -7 -42 -10 -68 -4 -27 -9 -56 -11 -65
-1 -10 -6 -46 -10 -82 -4 -36 -9 -72 -10 -81 -2 -9 -6 -40 -9 -70 -4 -30 -9
-70 -11 -89 -3 -19 -7 -60 -10 -90 -3 -30 -8 -64 -10 -75 -2 -11 -4 -28 -4
-38 -1 -14 -5 -16 -19 -8 -24 13 -49 92 -63 196 -5 44 -12 91 -14 105 -2 14
-6 52 -9 85 -3 33 -8 85 -12 115 -3 30 -7 78 -9 105 -11 125 -17 180 -21 184
-6 7 -61 -120 -79 -184 -15 -57 -31 -118 -41 -158 -2 -9 -6 -25 -8 -35 -7 -25
-44 -212 -49 -247 -3 -16 -15 -82 -26 -145 -12 -63 -24 -135 -27 -160 -12 -95
-39 -215 -49 -213 -15 2 -33 62 -50 171 -26 158 -25 156 -47 87 -26 -80 -117
-335 -128 -360 -5 -11 -18 -43 -29 -70 l-19 -51 42 -39 c22 -22 70 -65 106
-95 35 -30 71 -62 80 -70 29 -26 101 -83 230 -178 69 -50 130 -96 135 -100 21
-17 137 -92 141 -92 3 0 20 -11 37 -24 84 -62 405 -236 612 -331 114 -52 355
-147 455 -179 47 -15 94 -32 105 -37 42 -19 441 -121 525 -134 19 -3 46 -8 60
-11 14 -2 36 -6 50 -9 99 -19 159 -28 270 -40 30 -3 62 -8 70 -10 8 -2 60 -7
115 -11 55 -3 120 -8 145 -10 72 -6 519 -6 590 0 36 3 97 8 135 11 507 39
1140 199 1583 401 29 13 55 24 58 24 14 0 349 173 449 232 190 111 431 271
535 355 8 6 53 42 100 79 193 153 504 448 606 574 16 19 31 37 35 40 39 33
275 337 380 490 67 97 179 278 179 289 0 5 3 11 8 13 8 3 13 12 109 193 109
205 228 481 305 705 79 234 167 574 194 755 3 22 8 43 9 46 2 3 7 32 10 65 4
32 8 61 10 64 2 3 6 39 10 80 4 41 8 77 10 80 2 3 6 52 10 110 3 58 8 121 11
140 5 49 6 558 0 597 -3 18 -8 76 -11 130 -3 54 -8 109 -10 123 -6 40 -14 101
-20 155 -8 66 -16 112 -51 300 -46 243 -149 590 -256 860 -116 290 -239 534
-423 833 -106 172 -351 499 -482 642 -17 19 -41 46 -53 60 -69 81 -310 316
-415 405 -38 33 -72 63 -75 66 -36 42 -400 309 -421 309 -8 0 -23 -9 -34 -19z"/>
</g>
</svg>
