<?xml version="1.0" standalone="no"?>
<!DOCTYPE svg PUBLIC "-//W3C//DTD SVG 20010904//EN"
 "http://www.w3.org/TR/2001/REC-SVG-20010904/DTD/svg10.dtd">
<svg version="1.0" xmlns="http://www.w3.org/2000/svg"
 width="322.000000pt" height="322.000000pt" viewBox="0 0 322.000000 322.000000"
 preserveAspectRatio="xMidYMid meet">
<metadata>
Created by potrace 1.11, written by Peter Selinger 2001-2013
</metadata>
<g transform="translate(0.000000,322.000000) scale(0.100000,-0.100000)"
fill="#000000" stroke="none">
<path d="M0 1610 l0 -1610 1610 0 1610 0 0 1610 0 1610 -1610 0 -1610 0 0
-1610z m2130 965 c455 -455 502 -505 475 -505 -26 0 -91 61 -512 482 l-483
483 -483 -483 c-421 -421 -486 -482 -512 -482 -27 0 20 50 475 505 278 278
512 505 520 505 8 0 242 -227 520 -505z m-991 -291 c-118 -118 -221 -214 -229
-214 -8 0 86 101 210 225 124 124 227 220 229 214 2 -6 -93 -108 -210 -225z
m1170 -213 c-15 -5 -439 419 -439 439 0 8 101 -86 225 -210 124 -124 220 -227
214 -229z m-1414 -1171 c390 -390 712 -710 715 -710 3 0 325 320 715 710 520
520 716 710 732 710 13 0 23 -3 23 -7 0 -15 -1455 -1463 -1470 -1463 -15 0
-1470 1448 -1470 1462 0 5 10 8 23 8 16 0 212 -190 732 -710z m93 186 c201
-200 363 -368 361 -375 -2 -6 -173 158 -379 364 -206 206 -368 375 -360 375 8
0 178 -164 378 -364z m1262 -11 c-206 -206 -377 -370 -379 -364 -5 15 720 739
739 739 8 0 -154 -169 -360 -375z"/>
</g>
</svg>
